<svg width="115" height="22" viewBox="0 0 115 22" fill="none" xmlns="http://www.w3.org/2000/svg">
<path d="M7.368 17.28C5.89599 17.28 4.59999 16.992 3.47999 16.416C2.37599 15.84 1.51999 15.056 0.911995 14.064C0.303995 13.056 -5.33462e-06 11.912 -5.33462e-06 10.632C-5.33462e-06 9.336 0.295995 8.192 0.887995 7.2C1.49599 6.192 2.31999 5.408 3.35999 4.848C4.39999 4.272 5.57599 3.984 6.88799 3.984C8.152 3.984 9.288 4.256 10.296 4.8C11.32 5.328 12.128 6.096 12.72 7.104C13.312 8.096 13.608 9.288 13.608 10.68C13.608 10.824 13.6 10.992 13.584 11.184C13.568 11.36 13.552 11.528 13.536 11.688H3.04799V9.504H11.568L10.128 10.152C10.128 9.48 9.992 8.896 9.71999 8.4C9.44799 7.904 9.072 7.52 8.592 7.248C8.11199 6.96 7.552 6.816 6.912 6.816C6.27199 6.816 5.70399 6.96 5.20799 7.248C4.72799 7.52 4.35199 7.912 4.07999 8.424C3.80799 8.92 3.67199 9.512 3.67199 10.2V10.776C3.67199 11.48 3.82399 12.104 4.12799 12.648C4.44799 13.176 4.88799 13.584 5.44799 13.872C6.02399 14.144 6.696 14.28 7.464 14.28C8.15199 14.28 8.75199 14.176 9.26399 13.968C9.792 13.76 10.272 13.448 10.704 13.032L12.696 15.192C12.104 15.864 11.36 16.384 10.464 16.752C9.568 17.104 8.536 17.28 7.368 17.28ZM21.3846 17.376C20.0406 17.376 18.7526 17.2 17.5206 16.848C16.2886 16.48 15.2966 16.008 14.5446 15.432L15.8646 12.504C16.5846 13.016 17.4326 13.44 18.4086 13.776C19.4006 14.096 20.4006 14.256 21.4086 14.256C22.1766 14.256 22.7926 14.184 23.2566 14.04C23.7366 13.88 24.0886 13.664 24.3126 13.392C24.5366 13.12 24.6486 12.808 24.6486 12.456C24.6486 12.008 24.4726 11.656 24.1206 11.4C23.7686 11.128 23.3046 10.912 22.7286 10.752C22.1526 10.576 21.5126 10.416 20.8086 10.272C20.1206 10.112 19.4246 9.92 18.7206 9.696C18.0326 9.472 17.4006 9.184 16.8246 8.832C16.2486 8.48 15.7766 8.016 15.4086 7.44C15.0566 6.864 14.8806 6.128 14.8806 5.232C14.8806 4.272 15.1366 3.4 15.6486 2.616C16.1766 1.816 16.9606 1.184 18.0006 0.719996C19.0566 0.239997 20.3766 -2.86102e-06 21.9606 -2.86102e-06C23.0166 -2.86102e-06 24.0566 0.127997 25.0806 0.383996C26.1046 0.623996 27.0086 0.991996 27.7926 1.488L26.5926 4.44C25.8086 3.992 25.0246 3.664 24.2406 3.456C23.4566 3.232 22.6886 3.12 21.9366 3.12C21.1846 3.12 20.5686 3.208 20.0886 3.384C19.6086 3.56 19.2646 3.792 19.0566 4.08C18.8486 4.352 18.7446 4.672 18.7446 5.04C18.7446 5.472 18.9206 5.824 19.2726 6.096C19.6246 6.352 20.0886 6.56 20.6646 6.72C21.2406 6.88 21.8726 7.04 22.5606 7.2C23.2646 7.36 23.9606 7.544 24.6486 7.752C25.3526 7.96 25.9926 8.24 26.5686 8.592C27.1446 8.944 27.6086 9.408 27.9606 9.984C28.3286 10.56 28.5126 11.288 28.5126 12.168C28.5126 13.112 28.2486 13.976 27.7206 14.76C27.1926 15.544 26.4006 16.176 25.3446 16.656C24.3046 17.136 22.9846 17.376 21.3846 17.376ZM35.8533 17.28C34.7813 17.28 33.8213 17.072 32.9733 16.656C32.1413 16.24 31.4933 15.608 31.0293 14.76C30.5653 13.896 30.3333 12.8 30.3333 11.472V4.176H34.0773V10.92C34.0773 11.992 34.3013 12.784 34.7493 13.296C35.2133 13.792 35.8613 14.04 36.6933 14.04C37.2693 14.04 37.7813 13.92 38.2293 13.68C38.6773 13.424 39.0293 13.04 39.2853 12.528C39.5413 12 39.6693 11.344 39.6693 10.56V4.176H43.4133V17.088H39.8613V13.536L40.5093 14.568C40.0773 15.464 39.4373 16.144 38.5893 16.608C37.7573 17.056 36.8453 17.28 35.8533 17.28ZM52.4539 21.936C51.2379 21.936 50.0619 21.784 48.9259 21.48C47.8059 21.192 46.8699 20.752 46.1179 20.16L47.6059 17.472C48.1499 17.92 48.8379 18.272 49.6699 18.528C50.5179 18.8 51.3499 18.936 52.1659 18.936C53.4939 18.936 54.4539 18.64 55.0459 18.048C55.6539 17.456 55.9579 16.576 55.9579 15.408V13.464L56.1979 10.224L56.1499 6.96V4.176H59.7019V14.928C59.7019 17.328 59.0779 19.096 57.8299 20.232C56.5819 21.368 54.7899 21.936 52.4539 21.936ZM51.8779 16.464C50.6779 16.464 49.5899 16.208 48.6139 15.696C47.6539 15.168 46.8779 14.44 46.2859 13.512C45.7099 12.568 45.4219 11.472 45.4219 10.224C45.4219 8.96 45.7099 7.864 46.2859 6.936C46.8779 5.992 47.6539 5.264 48.6139 4.752C49.5899 4.24 50.6779 3.984 51.8779 3.984C52.9659 3.984 53.9259 4.208 54.7579 4.656C55.5899 5.088 56.2379 5.768 56.7019 6.696C57.1659 7.608 57.3979 8.784 57.3979 10.224C57.3979 11.648 57.1659 12.824 56.7019 13.752C56.2379 14.664 55.5899 15.344 54.7579 15.792C53.9259 16.24 52.9659 16.464 51.8779 16.464ZM52.6219 13.392C53.2779 13.392 53.8619 13.264 54.3739 13.008C54.8859 12.736 55.2859 12.36 55.5739 11.88C55.8619 11.4 56.0059 10.848 56.0059 10.224C56.0059 9.584 55.8619 9.032 55.5739 8.568C55.2859 8.088 54.8859 7.72 54.3739 7.464C53.8619 7.192 53.2779 7.056 52.6219 7.056C51.9659 7.056 51.3819 7.192 50.8699 7.464C50.3579 7.72 49.9499 8.088 49.6459 8.568C49.3579 9.032 49.2139 9.584 49.2139 10.224C49.2139 10.848 49.3579 11.4 49.6459 11.88C49.9499 12.36 50.3579 12.736 50.8699 13.008C51.3819 13.264 51.9659 13.392 52.6219 13.392ZM68.7586 21.936C67.5426 21.936 66.3666 21.784 65.2306 21.48C64.1106 21.192 63.1746 20.752 62.4226 20.16L63.9106 17.472C64.4546 17.92 65.1426 18.272 65.9746 18.528C66.8226 18.8 67.6546 18.936 68.4706 18.936C69.7986 18.936 70.7586 18.64 71.3506 18.048C71.9586 17.456 72.2626 16.576 72.2626 15.408V13.464L72.5026 10.224L72.4546 6.96V4.176H76.0066V14.928C76.0066 17.328 75.3826 19.096 74.1346 20.232C72.8866 21.368 71.0946 21.936 68.7586 21.936ZM68.1826 16.464C66.9826 16.464 65.8946 16.208 64.9186 15.696C63.9586 15.168 63.1826 14.44 62.5906 13.512C62.0146 12.568 61.7266 11.472 61.7266 10.224C61.7266 8.96 62.0146 7.864 62.5906 6.936C63.1826 5.992 63.9586 5.264 64.9186 4.752C65.8946 4.24 66.9826 3.984 68.1826 3.984C69.2706 3.984 70.2306 4.208 71.0626 4.656C71.8946 5.088 72.5426 5.768 73.0066 6.696C73.4706 7.608 73.7026 8.784 73.7026 10.224C73.7026 11.648 73.4706 12.824 73.0066 13.752C72.5426 14.664 71.8946 15.344 71.0626 15.792C70.2306 16.24 69.2706 16.464 68.1826 16.464ZM68.9266 13.392C69.5826 13.392 70.1666 13.264 70.6786 13.008C71.1906 12.736 71.5906 12.36 71.8786 11.88C72.1666 11.4 72.3106 10.848 72.3106 10.224C72.3106 9.584 72.1666 9.032 71.8786 8.568C71.5906 8.088 71.1906 7.72 70.6786 7.464C70.1666 7.192 69.5826 7.056 68.9266 7.056C68.2706 7.056 67.6866 7.192 67.1746 7.464C66.6626 7.72 66.2546 8.088 65.9506 8.568C65.6626 9.032 65.5186 9.584 65.5186 10.224C65.5186 10.848 65.6626 11.4 65.9506 11.88C66.2546 12.36 66.6626 12.736 67.1746 13.008C67.6866 13.264 68.2706 13.392 68.9266 13.392ZM85.3992 17.28C83.9272 17.28 82.6312 16.992 81.5112 16.416C80.4072 15.84 79.5512 15.056 78.9432 14.064C78.3352 13.056 78.0312 11.912 78.0312 10.632C78.0312 9.336 78.3272 8.192 78.9192 7.2C79.5272 6.192 80.3512 5.408 81.3912 4.848C82.4312 4.272 83.6072 3.984 84.9192 3.984C86.1832 3.984 87.3192 4.256 88.3272 4.8C89.3512 5.328 90.1592 6.096 90.7512 7.104C91.3432 8.096 91.6392 9.288 91.6392 10.68C91.6392 10.824 91.6312 10.992 91.6152 11.184C91.5992 11.36 91.5832 11.528 91.5672 11.688H81.0792V9.504H89.5992L88.1592 10.152C88.1592 9.48 88.0232 8.896 87.7512 8.4C87.4792 7.904 87.1032 7.52 86.6232 7.248C86.1432 6.96 85.5832 6.816 84.9432 6.816C84.3032 6.816 83.7352 6.96 83.2392 7.248C82.7592 7.52 82.3832 7.912 82.1112 8.424C81.8392 8.92 81.7032 9.512 81.7032 10.2V10.776C81.7032 11.48 81.8552 12.104 82.1592 12.648C82.4792 13.176 82.9192 13.584 83.4792 13.872C84.0552 14.144 84.7272 14.28 85.4952 14.28C86.1832 14.28 86.7832 14.176 87.2952 13.968C87.8232 13.76 88.3032 13.448 88.7352 13.032L90.7272 15.192C90.1352 15.864 89.3912 16.384 88.4952 16.752C87.5992 17.104 86.5672 17.28 85.3992 17.28ZM97.9759 17.28C96.8719 17.28 95.8079 17.152 94.7839 16.896C93.7759 16.624 92.9759 16.288 92.3839 15.888L93.6319 13.2C94.2239 13.568 94.9199 13.872 95.7199 14.112C96.5359 14.336 97.3359 14.448 98.1199 14.448C98.9839 14.448 99.5919 14.344 99.9439 14.136C100.312 13.928 100.496 13.64 100.496 13.272C100.496 12.968 100.352 12.744 100.064 12.6C99.7919 12.44 99.4239 12.32 98.9599 12.24C98.4959 12.16 97.9839 12.08 97.4239 12C96.8799 11.92 96.3279 11.816 95.7679 11.688C95.2079 11.544 94.6959 11.336 94.2319 11.064C93.7679 10.792 93.3919 10.424 93.1039 9.96C92.8319 9.496 92.6959 8.896 92.6959 8.16C92.6959 7.344 92.9279 6.624 93.3919 6C93.8719 5.376 94.5599 4.888 95.4559 4.536C96.3519 4.168 97.4239 3.984 98.6719 3.984C99.5519 3.984 100.448 4.08 101.36 4.272C102.272 4.464 103.032 4.744 103.64 5.112L102.392 7.776C101.768 7.408 101.136 7.16 100.496 7.032C99.8719 6.888 99.2639 6.816 98.6719 6.816C97.8399 6.816 97.2319 6.928 96.8479 7.152C96.4639 7.376 96.2719 7.664 96.2719 8.016C96.2719 8.336 96.4079 8.576 96.6799 8.736C96.9679 8.896 97.3439 9.024 97.8079 9.12C98.2719 9.216 98.7759 9.304 99.3199 9.384C99.8799 9.448 100.44 9.552 101 9.696C101.56 9.84 102.064 10.048 102.512 10.32C102.976 10.576 103.352 10.936 103.64 11.4C103.928 11.848 104.072 12.44 104.072 13.176C104.072 13.976 103.832 14.688 103.352 15.312C102.872 15.92 102.176 16.4 101.264 16.752C100.368 17.104 99.2719 17.28 97.9759 17.28ZM111.162 17.28C109.642 17.28 108.458 16.896 107.61 16.128C106.762 15.344 106.338 14.184 106.338 12.648V1.32H110.082V12.6C110.082 13.144 110.226 13.568 110.514 13.872C110.802 14.16 111.194 14.304 111.69 14.304C112.282 14.304 112.786 14.144 113.202 13.824L114.21 16.464C113.826 16.736 113.362 16.944 112.818 17.088C112.29 17.216 111.738 17.28 111.162 17.28ZM104.346 7.056V4.176H113.298V7.056H104.346Z" fill="url(#paint0_linear_125_90)"/>
<defs>
<linearGradient id="paint0_linear_125_90" x1="-0.768005" y1="8.088" x2="115.232" y2="8.088" gradientUnits="userSpaceOnUse">
<stop stop-color="#5C30B5"/>
<stop offset="1" stop-color="#39D5C3"/>
</linearGradient>
</defs>
</svg>
